# xmcd
#
# Track frame offsets:
# 150
# 14066
# 32148
# 48020
# 65203
# 80869
# 92582
# 105511
# 120577
# 144387
# 155384
# 168892
# 182114
#
# Disc length: 2610 seconds
#
#
# Revision: 0
# Processed by: cddbd v1.5.1PL0 Copyright (c) Steve Scherf et al.
# Submitted via: FreeRIP 2.942 
#
DISCID=a90a300d
DTITLE=Greg Champion - North and South
DYEAR=2004
DGENRE=Country
TTITLE0=Too Many Bridges
TTITLE1=Isn't That Somethin'
TTITLE2=Banks of the Condamine
TTITLE3=Back This Way Again
TTITLE4=Waukaringa
TTITLE5=Love You Anyway
TTITLE6=He's a Big Man
TTITLE7=Think of Me
TTITLE8=Another Day, Another Town
TTITLE9=Dunno How to Live That Clean
TTITLE10=Under an Australian Sun
TTITLE11='Cos We're Old Friends
TTITLE12=Not Dead and Not in Jail
EXTD=
EXTT0=
EXTT1=
EXTT2=with Jane Saunders
EXTT3=
EXTT4=
EXTT5=
EXTT6=
EXTT7=
EXTT8=
EXTT9=
EXTT10=
EXTT11=
EXTT12=
PLAYORDER=
